<svg style="width:0; height:0; visibility: hidden;" xmlns="http://www.w3.org/2000/svg">
	<symbol id="svg-home" viewBox="0 0 24 24">
		<g>
			<path
				d="M 12 2 A 1 1 0 0 0 11.289062 2.296875 L 1.203125 11.097656 A 0.5 0.5 0 0 0 1 11.5 A 0.5 0.5 0 0 0 1.5 12 L 4 12 L 4 20 C 4 20.552 4.448 21 5 21 L 9 21 C 9.552 21 10 20.552 10 20 L 10 14 L 14 14 L 14 20 C 14 20.552 14.448 21 15 21 L 19 21 C 19.552 21 20 20.552 20 20 L 20 12 L 22.5 12 A 0.5 0.5 0 0 0 23 11.5 A 0.5 0.5 0 0 0 22.796875 11.097656 L 12.716797 2.3027344 A 1 1 0 0 0 12.710938 2.296875 A 1 1 0 0 0 12 2 z"
				fill="currentColor" />
		</g>
	</symbol>
	<symbol id="svg-phone" viewBox="0 0 24 24">
		<g>
	<path
		d="M16.2525 16.1335L16.7833 15.5735L15.514 14.3683L14.9832 14.9295L16.2525 16.1335ZM18.5322 15.3378L20.7605 16.6223L21.6343 15.1045L19.4048 13.8212L18.5322 15.3378ZM21.191 19.2812L19.5343 21.0253L20.8025 22.2317L22.4592 20.4875L21.191 19.2812ZM18.5368 21.5853C16.8627 21.7498 12.4935 21.6098 7.75217 16.6188L6.484 17.8228C11.6512 23.263 16.5803 23.5383 18.7083 23.3272L18.5368 21.5853ZM7.75217 16.6188C3.23017 11.8577 2.47184 7.84083 2.37734 6.07916L0.629668 6.17366C0.746335 8.33199 1.661 12.7455 6.484 17.8228L7.75217 16.6188ZM9.3575 8.87449L9.69117 8.52216L8.423 7.31699L8.08817 7.66932L9.3575 8.87449ZM9.95483 4.13549L8.48367 2.05649L7.0545 3.06682L8.5245 5.14699L9.95483 4.13549ZM3.50317 1.60616L1.67383 3.53582L2.94317 4.74099L4.77484 2.81249L3.50317 1.60616ZM8.72284 8.27132C8.51287 8.06896 8.30092 7.86867 8.087 7.67049L8.08467 7.67282L8.08117 7.67632L8.02284 7.74399C7.9086 7.89545 7.81811 8.06343 7.7545 8.24216C7.64017 8.56299 7.5795 8.98766 7.6565 9.51732C7.80817 10.558 8.49067 11.9568 10.2722 13.834L11.5415 12.6277C9.8755 10.8742 9.46484 9.79499 9.38784 9.26299C9.3505 9.00632 9.38784 8.87216 9.403 8.82899L9.41234 8.80682L9.37967 8.84999L9.35867 8.87332C9.35867 8.87332 9.35634 8.87332 8.72284 8.27132ZM10.2722 13.834C12.049 15.7053 13.3907 16.4392 14.4138 16.606C14.94 16.6912 15.3658 16.6223 15.6878 16.4952C15.8664 16.4255 16.0324 16.327 16.179 16.2035L16.221 16.1638L16.2373 16.1475L16.2455 16.1405L16.249 16.137L16.2502 16.1347C16.2502 16.1347 16.2525 16.1335 15.6178 15.5303C14.9832 14.9283 14.9843 14.9272 14.9843 14.926L14.9867 14.9248L14.989 14.9213L14.9948 14.9155L15.0065 14.9038L15.0497 14.8665C15.0613 14.8603 15.0598 14.8607 15.045 14.8677C15.0217 14.877 14.9167 14.9143 14.695 14.8782C14.226 14.8012 13.2133 14.3882 11.5415 12.6277L10.2722 13.834ZM8.48367 2.05649C7.30067 0.383491 4.93467 0.0999914 3.50433 1.60732L4.77134 2.81249C5.3815 2.17082 6.45717 2.22099 7.0545 3.06682L8.48367 2.05649ZM2.37734 6.07916C2.35167 5.61249 2.55584 5.14699 2.94317 4.74099L1.67383 3.53582C1.0485 4.19382 0.572501 5.10732 0.629668 6.17366L2.37734 6.07916ZM19.5332 21.0265C19.2077 21.3695 18.8682 21.5527 18.5368 21.5853L18.7083 23.3272C19.5798 23.242 20.2857 22.7765 20.8025 22.2317L19.5332 21.0265ZM9.69117 8.52332C10.8205 7.33449 10.8998 5.47482 9.95483 4.13666L8.52567 5.14699C9.018 5.84349 8.94217 6.77099 8.423 7.31699L9.69117 8.52332ZM20.7605 16.6223C21.7183 17.1742 21.9062 18.5298 21.191 19.2823L22.4592 20.4875C23.9817 18.8845 23.5383 16.2012 21.6343 15.1045L20.7605 16.6223ZM16.7833 15.5747C17.2325 15.101 17.9337 14.9948 18.5322 15.339L19.4048 13.8223C18.1227 13.085 16.5348 13.2973 15.514 14.3707L16.7833 15.5747Z"
		fill="currentColor" />

		</g>
	</symbol>
</svg>